<svg xmlns="http://www.w3.org/2000/svg" width="1200" height="676" version="1.0" viewBox="0 0 900 507"><g fill="#fff"><path d="M92 2.2c0 1.3.6 6.6 1.4 11.8 1.4 9.2 2.7 18.1 6.1 43.5.9 6.6 2.2 15.8 2.9 20.5.7 4.7 1.1 9.1.8 9.8-.4 1.1-3.3 1.3-12.9 1-12.5-.3-12.5-.3-15-3.3-1.4-1.7-4.6-5.3-7.2-8-2.6-2.8-8.7-9.5-13.6-15-5-5.5-9.2-10.2-9.5-10.5-.3-.3-8.9-9.7-19-21C15.8 19.8 5.8 8.7 3.8 6.5L0 2.5v3.7c0 3.2 1.2 4.9 10.6 15.5 5.9 6.5 12.8 14 15.4 16.8 2.6 2.7 6.6 7.2 9 10 2.3 2.7 6.5 7.5 9.4 10.5C60.6 76.4 69 85.9 69 86.9c0 .8-8.3 1.1-28.6 1.1H11.9l-5.4-3c-3-1.7-5.6-3-5.9-3-.4 0-.6 7.1-.6 15.8v15.8l5.3 2.7c2.8 1.6 6.6 3.7 8.2 4.7 3.2 2 8.7 5.1 14.5 8.3 1.9 1 4.9 2.7 6.5 3.8 1.7 1 3.7 2.2 4.5 2.6.8.4 5.9 3.3 11.3 6.5s10 5.8 10.2 5.8c.2 0 4.9 2.7 10.5 6s10.3 6 10.5 6c.3 0 18.8 10.7 22.5 13 .8.5 3.4 1.9 5.8 3.2 5.5 2.8 6.1 3.6 6.8 9.2l.7 4.8-9.5 9.6c-5.2 5.4-12.5 13.3-16.4 17.7-3.8 4.4-8.5 9.7-10.4 11.9-5.2 5.8-5.1 5.6-11.5 13.1-5.9 6.9-11.8 13.6-14.2 16-.7.7-4.4 5-8.4 9.6-3.9 4.6-7.5 8.6-7.8 8.9-.4.3-4.9 5.4-10.1 11.5C15.4 304.4 16 304 7.3 304H0v38.3l2.2-1.9c1.2-1 4-3.6 6.2-5.7l4-3.7h53.2c42.8 0 53.4.3 54.3 1.3.7.9.8 3.2.1 7.3-.5 3.2-1.6 12-2.5 19.4-.9 7.4-2.2 18.4-3 24.5-.8 6-2.1 16.6-3 23.5-3.6 28.8-4.7 35-6.2 35-1.4 0-4.4-1.8-26.8-16.5-10.3-6.7-14.9-9.7-32.2-20.8-3.8-2.4-10.8-7-15.8-10.3-5-3.2-9.4-6.1-10-6.4-.5-.3-3.7-2.3-7-4.5-14.1-9.3-13.5-9-13.5-5.8.1 2.4 1.3 3.6 8.8 8.4 4.8 3.1 13.4 8.8 19.2 12.5 5.8 3.8 11 7.1 11.5 7.4.6.3 4.2 2.6 8 5.1 7.3 4.8 18.6 12.1 31.5 20.4 4.1 2.6 11.9 7.7 17.4 11.3l9.8 6.5-.6 4.6c-.4 2.5-1.1 8.7-1.6 13.7-.5 4.9-1.1 9.7-1.4 10.5-.5 1.1-3.6 25.6-3.6 28.1 0 1.2 85.8 1 86.5-.2.8-1.3 8.2-1.3 9 0 .3.6 2.7 1 5.3 1 4.2-.1 4.5-.2 2.8-1.5-2.4-1.8-1.2-3.5 2.4-3.5 1.6 0 5.5-.6 8.7-1.4 3.2-.8 8.5-1.7 11.8-2 6-.6 6-.6 11.5 3.9l5.5 4.5h22.2c12.3 0 22.3-.3 22.3-.8 0-.4-1.5-1.7-3.3-3-1.7-1.2-5.7-4.4-8.7-7.1-6.2-5.6-6.7-5.1 7.5-7.5 16.8-2.9 26.7-4.6 34.5-6.1 4.1-.8 9.1-1.6 11-1.9 3.4-.4 7.7-1.1 24-4.1 4.1-.7 11.8-2.1 17-3 5.2-.9 13.1-2.2 17.5-3 4.4-.8 12.3-2.1 17.5-3 5.2-.9 12.9-2.2 17-3 4.1-.7 12-2.1 17.5-3 5.5-.9 13.2-2.3 17-3 3.9-.7 11.5-2.1 17-3 5.5-.9 13.4-2.2 17.5-3 4.1-.7 12-2.1 17.5-3 10.6-1.7 20.9-3.6 31.5-5.6 3.6-.7 8.8-1.5 11.5-1.9 2.8-.4 7.7-1.3 11-2l6-1.3 8 4.7c4.4 2.6 8.7 5.1 9.5 5.6.8.6 2.2 1.3 3 1.7.8.4 5.9 3.3 11.3 6.5s10 5.8 10.2 5.8c.4 0 20.1 11.4 22.5 13 .8.6 2.2 1.3 3 1.7.8.4 4.7 2.5 8.5 4.8 3.9 2.2 7.7 4.4 8.5 4.8.8.4 2.9 1.6 4.5 2.7 1.7 1.1 3.7 2.3 4.5 2.7 1.6.7 15.5 8.7 18 10.3 6.2 4 6.8 4 35 3.8l27.5-.3-5.5-2.9c-8-4.2-10.1-5.5-13.5-7.6-1.6-1.1-3.7-2.3-4.5-2.7-1.8-.8-15.8-8.9-18-10.3-.8-.6-2.2-1.3-3-1.7-.8-.4-5.9-3.3-11.3-6.5s-10-5.8-10.2-5.8c-.4 0-20.1-11.4-22.5-13-.8-.6-2.2-1.3-3-1.7-.8-.4-4.6-2.6-8.5-4.8-3.8-2.3-7.7-4.4-8.5-4.8-.8-.4-2.8-1.6-4.5-2.6-1.6-1.1-5.4-3.2-8.3-4.7-6.4-3.4-8.2-5.2-6.1-6.5.8-.5 2.8-.9 4.4-.9 1.7 0 6.2-.6 10-1.4 3.9-.8 11.5-2.2 17-3.1 5.5-.9 13.4-2.3 17.5-3 4.1-.8 11.8-2.1 17-3 5.2-.9 13.1-2.2 17.5-3 4.4-.7 10.9-1.9 14.5-2.6 3.6-.7 8.8-1.5 11.5-1.9 2.8-.4 7.9-1.2 11.5-1.9 12.5-2.4 21.6-4 31.5-5.6 5.5-.9 13.4-2.3 17.5-3 7-1.3 11.5-2 35-6 11.2-2 22-3.9 31-5.6 3.6-.7 8.8-1.5 11.5-1.9 4.9-.7 10.3-1.7 25.3-4.6 4-.8 8.6-1.4 10.2-1.4h3v-13c0-12.7 0-13-2.2-13-2.1 0-5.2.5-21.8 3.5-7.1 1.3-14 2.5-35.2 6.1-5.1.8-12.4 2.2-16.3 3-3.8.8-7.9 1.4-9 1.4-1.1 0-5.1.6-9 1.4-3.8.8-11.2 2.2-16.2 3-5.1.9-13.5 2.3-18.5 3.2-5.1.8-12.4 2.2-16.3 3-3.8.8-7.9 1.4-9 1.4-1.1 0-5.1.6-9 1.4-3.8.8-11.5 2.2-17 3.1-5.5.9-13.1 2.3-17 3.1-3.8.8-7.9 1.4-9 1.4-1.1 0-5.1.6-9 1.4-3.8.8-11 2.2-16 3-24.1 4-36.2 6.2-49.5 8.7-3.6.7-9 1.5-12 1.9-5.3.7-11.1 1.7-25.4 4.6l-6.9 1.4-4.6-2.8c-2.5-1.6-5.3-3.1-6.1-3.5-.8-.4-2.8-1.6-4.5-2.7-1.6-1.1-3.7-2.3-4.5-2.7-.8-.4-4.6-2.5-8.5-4.8-3.8-2.2-7.7-4.4-8.5-4.8-.8-.4-2.4-1.3-3.5-2s-5.1-3-9-5.2c-3.8-2.2-7.9-4.5-9-5.2-1.1-.7-2.7-1.6-3.5-2-.8-.4-5.8-3.2-11-6.3-5.2-3.1-10.2-5.9-11-6.3-.8-.4-2.4-1.3-3.5-2s-5.2-3-9-5.2c-3.9-2.2-7.9-4.5-9-5.2-1.1-.7-2.7-1.5-3.5-1.9-.8-.4-5.9-3.4-11.3-6.6-5.5-3.2-10.2-5.8-10.6-5.8-.4 0-1.8-1.2-3.2-2.6l-2.4-2.7 230.3.6 230.2.5V307H712.1c-103.4 0-188.2-.4-188.5-.8-.4-.7 1.5-4.2 9.4-16.7.8-1.3 4.1-6.6 7.3-11.7s9.4-14.9 13.7-21.8c4.3-6.9 11.1-17.7 15-24 3.9-6.3 10-16 13.5-21.5s9-14.2 12.2-19.3c3.2-5.2 6.5-10.4 7.3-11.7.8-1.3 3.5-5.6 6-9.5 2.5-3.9 5.2-8.2 6-9.5.8-1.3 4.1-6.6 7.3-11.7s9.3-14.9 13.7-21.8c4.3-6.9 11.1-17.8 15-24.3 5.3-8.4 7.8-11.7 9.2-11.7 1.1 0 6.5 3 12 6.7 5.5 3.8 11 7.5 12.3 8.3 1.3.8 7.7 5.1 14.2 9.5 6.5 4.4 12.6 8.4 13.5 9 .9.5 43.3 28.8 94.2 62.8 50.8 33.9 92.9 61.7 93.5 61.7.6 0 1.1-1.4 1.1-3 0-1.9-.5-3-1.4-3-.8 0-27.9-17.7-60.1-39.3-32.3-21.5-59.4-39.7-60.3-40.2-.9-.6-3.3-2.2-5.3-3.8-2-1.5-3.9-2.7-4.2-2.7-.4 0-22.6-14.8-47.2-31.4-3.3-2.3-6.8-4.5-7.7-5.1-.9-.5-5-3.2-9-6-4-2.7-8.1-5.4-9-6-1-.5-27.9-18.6-59.8-40C604 47 576.8 28.8 575.5 28 561.6 19.3 537.1 2.2 537 1.2c0-.8-1.6-1.2-4.5-1.2-3 0-4.5.4-4.4 1.2 0 1 89.5 61.6 100.7 68.3.9.6 5 3.3 9 6 9.4 6.4 12.4 8.3 14 9.1 2.1 1.1 1.3 3.7-3.1 10.5-2.4 3.6-4.7 7.2-5 8-.4.8-3.6 5.9-7.1 11.4-3.5 5.5-9.6 15.2-13.6 21.5-3.9 6.3-10.7 17.1-15 24-4.3 6.9-10.5 16.7-13.7 21.8-3.2 5.1-6.5 10.4-7.3 11.7-.8 1.3-3.5 5.6-6 9.5-2.5 3.9-5.2 8.2-6 9.5-.8 1.3-4.2 6.7-7.5 12s-6.7 10.7-7.5 12c-.8 1.3-3.5 5.6-6 9.5-2.5 3.9-5.2 8.2-6 9.5-4.1 6.5-14 22.4-18 28.9-8.2 13.2-13.4 21.1-14.4 21.8-.6.4-28.4.8-61.8.8h-60.7l-5.1-3c-2.8-1.7-5.3-3-5.6-3-1.4 0-6.4-4.6-6.4-5.8 0-.8 1.6-4.8 3.5-8.8 4.7-9.8 9.5-20.2 13.8-29.4 1.9-4.1 4.8-10.5 6.6-14.3 1.7-3.7 4.5-9.7 6.2-13.5 1.7-3.7 4.8-10.3 6.9-14.7 2.1-4.4 5.2-11 6.9-14.8 1.7-3.7 4.5-9.7 6.2-13.5 1.8-3.7 4.7-10.1 6.6-14.2 1.9-4.1 5.2-11.1 7.3-15.5 2.1-4.4 5.2-11 6.9-14.8 6.7-14.6 9.5-20.5 13.3-28.7 7.5-15.8 10.6-22.5 13.6-29 5.6-12.3 9.4-20.5 13.4-29 7.5-15.9 10.6-22.5 13.8-29.5 1.8-3.9 5-10.6 7.1-15.1 2.2-4.4 3.9-8.6 3.9-9.2 0-.9-4.9-1.2-18-1.2-14.9 0-18 .2-18 1.4 0 .8-1.1 3.6-2.4 6.3-1.3 2.6-3.8 7.9-5.6 11.8-1.8 3.8-4.8 10.4-6.7 14.5-6.9 14.7-10.1 21.6-13.3 28.5-7.1 15.3-10.3 22.3-13.7 29.5-1.9 4.1-4.8 10.2-6.3 13.5-1.5 3.3-4.6 9.8-6.8 14.5-2.2 4.7-5.1 11-6.5 14-1.4 3-4.6 10-7.2 15.5-2.6 5.5-5.8 12.5-7.2 15.5-1.4 3-4.2 9.1-6.3 13.5-2.1 4.4-5.2 11.1-7 15-1.8 3.8-4.7 10.3-6.6 14.2-1.9 4-4.9 10.6-6.8 14.5-1.9 4-4.9 10.4-6.6 14.3-4.1 8.8-9.5 20.4-12.8 27.5-1.4 3-3.2 6.1-3.9 6.8-.7.7-1.3 1.8-1.3 2.4 0 .6-.3.9-.6.6-.3-.3 0-3.5.6-7 .6-3.4 1.7-9.9 2.5-14.3.7-4.4 2.1-12.7 3-18.5.9-5.8 2.3-14.1 3-18.5 1.3-7.4 2.1-12.8 6.1-36.8.8-4.8 2.1-12.6 2.9-17.5 1.5-9.4 3.6-22.1 6.1-37.2.8-5.2 2.1-13.1 2.9-17.5.7-4.4 2.1-12.5 2.9-18 .9-5.5 2.1-12.5 2.7-15.5.6-3 1.2-7.3 1.5-9.5.3-2.2 1.1-7.6 1.9-12 .7-4.4 2.1-12.5 3-18 .9-5.5 2.3-13.4 3.1-17.5.7-4.2 1.4-9.4 1.4-11.8 0-3.8-.2-4.2-2.4-4.2-2.2 0-2.5.5-3.1 4.7-.3 2.7-1.2 8.4-2 12.8-.7 4.4-2.1 12.5-3 18-.9 5.5-2.2 13.6-3 18-.7 4.4-2.1 12.5-3 18-.9 5.5-2.3 13.8-3.1 18.5-1.4 8.9-3.2 19.6-5.9 36.5-.9 5.5-2.2 13.6-3 18-.7 4.4-2.1 12.3-2.9 17.5-.9 5.2-2.2 13.5-3 18.5-.8 4.9-2.2 13.5-3.1 19-.9 5.5-2.2 13.6-3 18-.7 4.4-2.1 12.5-3 18-.9 5.5-2.3 13.4-3.1 17.5-.7 4.2-1.4 9-1.4 10.7 0 3.5-.8 6.3-1.9 6.3-.7 0-2.7-5.5-5.6-15.5-.9-3.3-2.3-8-3-10.5-.7-2.5-2.1-7.4-3-11-1-3.6-2.3-8.3-3-10.5-.7-2.2-2.1-6.9-3-10.5-1-3.6-2.3-8.5-3.1-11-1.7-5.7-3.7-12.7-5.9-21-1-3.6-2.3-8.3-3-10.5-.7-2.2-2.1-6.9-3-10.5-.9-3.6-2.3-8.3-3-10.5-.7-2.2-2-6.9-3-10.5-1.7-6.2-2.9-10.5-6-21.5-1.9-6.4-4.2-14.5-6.1-21.5-.9-3-2.2-7.5-3-10-.7-2.5-1.6-6.4-2-8.7-.6-4.1-.5-4.4 4.2-8.9 2.7-2.5 8.5-8 12.9-12.3C307.9 50.9 319.4 40 329 31c28.2-26.5 30-28.3 30-29.7 0-1-4.4-1.3-21.5-1.3-17.4 0-21.5.3-21.5 1.3 0 .8-4.6 5.7-10.2 11-5.7 5.3-14.3 13.4-19.3 18.1-4.9 4.7-9.5 8.5-10.1 8.6-.7 0-1.4-1.2-1.7-2.8-.3-1.5-1.2-5-2-7.7-2.4-8-4.8-16.6-6.5-22.8-1.3-5-1.8-5.7-4-5.7-2.3 0-2.4.2-1.9 4.2.4 2.4 1.3 6.7 2.2 9.5 7.2 24 8.6 30.3 7.3 32.1-1.3 1.7-12.1 12.1-30.3 29.1-5 4.6-16.9 15.9-26.5 25.1-9.6 9.2-20.5 19.4-24.2 22.8-6.5 6-9.6 7.7-8.5 4.8.3-.8.9-4.3 1.2-7.8.3-3.5 1.2-11.3 2-17.3.8-6.1 2.1-16.6 3-23.5.9-6.9 2.2-17 3-22.5.8-5.5 1.5-11.8 1.5-14 0-2.2.5-6 1.1-8.5.6-2.5 1.4-8.8 1.9-14 .5-5.2 1.2-11.9 1.6-14.8l.7-5.2h-34.1l-.6 7.7c-.4 4.3-1.3 11.7-2.1 16.4-.8 4.8-1.5 10.2-1.5 12 0 1.9-.7 7.9-1.5 13.4-3.2 22.2-4.5 32.2-4.5 35.6 0 2-.6 4.1-1.3 4.7-.8.7-7.7.9-20.5.5-16.3-.5-19.4-.9-20.1-2.2-1-1.8-1.8-7.1-7.7-51.1-.8-6.3-2.2-15.6-3-20.6C98.6 11.5 98 5.7 98 3.7 98 .3 97.8 0 95 0c-2.4 0-3 .4-3 2.2zm190.4 82.1c.9 2.8 2.3 7.7 3.2 10.7.8 3 2.1 7.5 2.9 10 .7 2.5 2.1 7.4 3 11 1 3.6 2.3 8.3 3 10.5.7 2.2 2.1 6.9 3 10.5 1 3.6 2.3 8.5 3 11 .8 2.5 2.1 7 2.9 10 .9 3 2.3 8 3.1 11 .9 3 2.2 7.7 3 10.5 1.4 5.1 3.8 13.4 6.1 21.5.7 2.5 2 7 2.8 10 .9 3 2.3 8 3.1 11 1.6 5.4 3.5 12.2 6 21 3 10.8 4.7 16.8 6.1 21 1.4 4.4 1.9 9 .9 9-.5 0-7.7-4-17-9.5-3.8-2.2-7.7-4.4-8.5-4.8-.8-.4-2.4-1.3-3.5-2s-5.2-3-9-5.2c-3.9-2.2-7.9-4.5-9-5.2-1.1-.7-2.7-1.6-3.5-2-.8-.4-4.6-2.6-8.5-4.8-3.8-2.3-7.7-4.4-8.5-4.8-.8-.4-2.8-1.6-4.5-2.7-1.6-1.1-3.7-2.3-4.5-2.7-.8-.4-4.6-2.5-8.5-4.8-3.8-2.2-7.7-4.4-8.5-4.8-.8-.4-2.4-1.3-3.5-2s-5.2-3-9-5.2c-3.9-2.2-7.9-4.5-9-5.2-1.1-.7-2.7-1.6-3.5-2-.8-.4-4.6-2.6-8.5-4.8-3.8-2.3-7.7-4.4-8.5-4.8-.8-.4-2.8-1.6-4.5-2.7-1.6-1.1-3.9-2.4-5-2.9-6.3-3.1-15-8.9-15.3-10.2-.4-2 7.6-9.9 49.8-49.4 4.7-4.4 9.7-9.1 11.1-10.5 31.3-30.2 44.1-42 45.1-41.4.3.2 1.4 2.8 2.2 5.7zM61.6 92.8l14.1.7 4.9 5.4C90 109.1 91 110.4 91 112.1c0 1.2-1.2 2.2-3.2 2.8-1.8.5-5.8 1.9-8.8 3.1-9.7 3.9-8.5 4.1-21.5-3.7-1.1-.7-2.7-1.6-3.5-2-.8-.4-4.6-2.6-8.5-4.8-3.8-2.3-7.7-4.4-8.5-4.8-2.8-1.3-10.7-6.2-13.6-8.4l-2.9-2.2H34c7.4 0 19.8.4 27.6.7zm43.1 3.9c.4 1.6.7 4.7.7 7.1.1 4-.2 4.5-3.3 5.8l-3.3 1.4-7.3-7.7c-4.1-4.2-7.1-8.1-6.9-8.5.3-.4 4.8-.8 9.9-.8h9.5l.7 2.7zm33.3-1.2c0 .5-1 1.3-2.3 1.7-1.2.3-4.7 1.6-7.7 2.8-10.3 4-14.2 5.1-15.5 4.7-1.3-.6-2.9-8.2-1.9-9.8.8-1.3 27.4-.7 27.4.6zm11.4 9.3c-.9 10.3-2.3 17.5-3.7 18.4-.6.4-3.2.8-5.7.8s-8.5.7-13.5 1.4c-5.3.8-9.7 1-10.6.5-1.9-.9-2.9-5.1-2.9-11.5 0-4 .2-4.4 3.3-5.3 1.7-.5 5.7-1.9 8.7-3.1 3-1.2 6.6-2.5 8-3 5.2-1.8 13.3-4.9 13.7-5.4.3-.3 1.1-.2 1.9.1 1 .4 1.2 2.1.8 7.1zm-42.6 11.5c.4 2.9-.9 3.5-2.7 1.3-1.3-1.6-.4-4.9 1.3-4.3.6.2 1.2 1.6 1.4 3zm-6 5c5.3 5.4 4.8 6-6.6 7.7-8 1.2-8.6 1.2-12.8-.9-2.4-1.2-4.4-2.6-4.4-3.1 0-1.1 3-2.8 6.9-4.1 1.4-.4 4.4-1.5 6.6-2.3 5.6-2.1 5.6-2.1 10.3 2.7zm45.1 10.9c-.1 5.2-3.1 24.4-4 25.3-.4.3-5.1-4.3-10.5-10.2-5.5-5.9-10.7-11.5-11.7-12.6-3.2-3.2-1.6-4.2 8.8-4.9 5.3-.4 10-1 10.3-1.3.3-.3 2-.5 3.9-.5 3.2 0 3.3.1 3.2 4.2zm-35.8 5.3c.4 2.7.3 5.3 0 5.8-.7.7-4-.7-9.6-4.3-1.6-1.1-4.1-2.4-5.4-3-3.3-1.4-1.7-2.8 3.9-3.3 10.1-.9 10.4-.8 11.1 4.8zm16 11.8c2.2 2.7 3.9 5.3 3.9 5.8 0 1.2-9.1-3.9-11.2-6.3-1-1.1-1.8-3.6-1.8-5.6v-3.5l2.6 2.4c1.5 1.3 4.4 4.6 6.5 7.2zm49.4 64.7c1.7 1 5.3 3.1 8 4.6 8.9 4.9 10 5.5 13 7.4 1.7 1.1 3.7 2.3 4.5 2.7.8.4 4.7 2.6 8.5 4.8 3.9 2.3 7.7 4.4 8.5 4.8.8.4 2.2 1.1 3 1.7 2.4 1.6 22.1 13 22.5 13 .2 0 4.8 2.6 10.2 5.8 5.4 3.2 10.5 6.1 11.3 6.5.8.4 2.9 1.6 4.5 2.7 1.7 1.1 4.4 2.6 6 3.4 1.7.8 5.3 2.9 8 4.5 2.8 1.7 5.9 3.5 7 4.1 1.1.6 2.9 1.6 4 2.3 1.1.7 5.2 3 9 5.2 3.9 2.2 7.9 4.5 9 5.2 1.1.7 2.7 1.5 3.5 1.9 6.3 3.1 17.9 10.7 17.5 11.5-.4.5-33.7.9-86.9.9-75.1 0-86.5-.2-87.6-1.5-1-1.2-.9-3.5.3-11.2.9-5.4 2.3-16.1 3.2-23.8.9-7.7 2.3-18.1 3.1-23.1.8-5 1.4-10.9 1.4-13 0-2.2.7-7.5 1.5-11.9s1.4-8.6 1.5-9.3c0-1.7 1.9-1.4 5.5.8zm-41 9.2c-1.4 14.6-1.7 16.8-2.5 16.8-1.7 0-3-3.8-3.6-10.9-.6-6.6-.5-7.4 1.6-9.6 4-4.3 5.2-3.3 4.5 3.7zm-10.8 13.3c4.4 26.3 5 37.4 2.9 49.9-.9 5.1-1.6 11.1-1.6 13.2 0 2.2-.4 4.4-.8 5.1-1 1.6-82.5 2-83 .4-.4-1.2-.2-1.3 15.4-16.1 5.5-5.2 18.3-17.4 28.4-27 10.2-9.6 21.6-20.4 25.5-24 3.8-3.6 7.4-7.1 7.8-7.8.5-.7 1.6-1.2 2.5-1 1.3.2 2 2.2 2.9 7.3zm171.6 95.2c19.4.7 18.7-.3 8.2 12.9-3.8 4.9-12.6 16.3-19.5 25.4-6.9 9.1-13.5 17.6-14.7 19-2.1 2.4-10.2 12.9-33.8 43.6-6 7.9-15.8 20.5-21.6 28.1-5.9 7.6-11.4 14.4-12.2 15.2-.9.7-4.5 1.6-7.9 2.1-3.5.4-8.1 1.2-10.3 1.8-2.2.6-6.9 1.3-10.3 1.7-8.9.9-10.9-.5-11.7-8.2-.3-3.2-1.2-10.3-2-15.8-1.5-10.7-3.4-24.9-6-44-.9-6.6-2.3-16.1-3.1-21.1-2.1-13.4-2.2-11.3 3.1-49.3.9-5.7 1.8-10.7 2.1-11.2.6-1 114.6-1.2 139.7-.2zm90.4 2.9c2.6 1.5 6.7 3.9 9.2 5.4 2.6 1.4 5.3 2.9 6.1 3.3.8.4 2.2 1.1 3 1.7 2.4 1.6 22.1 13 22.5 13 .2 0 4.8 2.6 10.2 5.8 5.4 3.2 10.5 6.1 11.3 6.5.8.4 2.4 1.3 3.5 2s5.1 3 9 5.2c3.8 2.2 7.9 4.5 9 5.2 1.1.7 2.7 1.6 3.5 2 .8.4 5.8 3.2 11 6.3 5.2 3.1 10.2 5.9 11 6.3.8.4 2.4 1.3 3.5 2s5.1 3 9 5.2c3.8 2.2 7.7 4.4 8.7 5 .9.5 3.7 2.1 6.2 3.4 4.9 2.6 8.3 5.7 7.3 6.7-.3.3-3.6 1-7.4 1.4-3.7.5-9.5 1.4-12.8 2-8.6 1.7-19.6 3.6-30.2 5.4-5.1.9-13.5 2.3-18.5 3.2-5.1.8-12.7 2.2-16.8 2.9-4.1.7-11.5 2-16.5 2.9-24 4-28.5 4.8-35 6.2-3.8.8-7.9 1.4-9 1.4-1.1 0-5.1.6-9 1.4-3.8.8-11.2 2.2-16.2 3-21.3 3.6-28.2 4.8-35.3 6.1-22.3 4-23 4.1-23 2.5 0-.6 2-5.2 4.4-10.3 2.4-5.1 5.9-12.6 7.9-16.7 6.4-14 9.9-21.5 13.2-28.5 1.8-3.9 4.7-10.2 6.5-14 1.8-3.9 4.9-10.6 7-15 2.1-4.4 5.2-11.2 7-15 1.8-3.9 4.8-10.3 6.6-14.3 1.9-4 3.4-7.5 3.4-7.9 0-.4.7-1.5 1.7-2.5 1.4-1.5 3.2-1.8 12.4-1.8 9.8 0 11.3.2 15.6 2.6zm-65.1.8c-.5 2-3.6 8.7-15.6 34.1-1.5 3.3-4 8.7-5.5 12-2.7 6-5.7 12.4-13.3 28.5-2.2 4.7-5.4 11.6-7.2 15.5-19.3 41.8-18.5 40.3-22.8 41.4-2.1.6-5.1 1.3-6.8 1.5-9.4 1.4-23.8 4-29.8 5.3-8.7 1.9-10.1.9-6-4.3 3-3.8 14.7-18.9 32.7-42.2 5.6-7.3 11.6-15 13.2-17.1 1.7-2.1 8.6-11.1 15.5-20 6.9-9 16.9-22 22.3-28.9 5.4-7 12.3-15.9 15.3-19.9 4.7-6.2 6.4-7.8 8.3-8.2.2-.1 0 1-.3 2.3zm-172.2 81.3c.8 7.7 3.4 26.6 5.2 37.9 1.6 10.3 1.8 19.4.4 19.4-.5 0-4.1-2.1-8-4.7l-7.2-4.8.7-9c.3-4.9 1-11.5 1.6-14.5.5-3 1.4-10.2 1.9-15.9 1.1-10.2 2.2-14.1 4-14.1.5 0 1.1 2.6 1.4 5.7zm2 60.8c6.7 4.1 8 6 4.9 6.9-10.1 2.8-20 3.3-19.6.9.2-.7.5-3.8.9-7 .9-8.7.9-8.8 4.4-6.6 1.6 1 5.8 3.6 9.4 5.8zM570.6.9c-.7 1 6.5 6.4 54.4 40.6 6.1 4.4 15.9 11.4 21.6 15.5 5.7 4.1 16.1 11.5 23 16.5 6.9 4.9 17.9 12.8 24.4 17.5 6.5 4.7 16.8 12.1 23 16.5 6.1 4.4 15.9 11.4 21.6 15.5 5.8 4.1 15.1 10.8 20.7 14.8s15.7 11.2 22.4 16c6.7 4.8 17.2 12.3 23.3 16.7 6.2 4.4 15.9 11.4 21.7 15.5 5.7 4.1 15.9 11.4 22.6 16.2 18.7 13.4 36.6 26.3 42.8 30.7 3.1 2.3 6.2 4.1 6.8 4.1.8 0 1.1-5.3 1.1-17.5 0-10.2-.4-17.5-.9-17.5-1.1 0-9.4-5.6-21.8-14.6-4.5-3.3-13.2-9.5-19.3-13.9-6.2-4.4-16.5-11.8-23-16.5-6.5-4.7-17.4-12.6-24.4-17.5-6.9-5-17.4-12.5-23.4-16.7-34.1-24.6-49.6-35.7-66.9-48-5.6-4-14.9-10.7-20.7-14.8-5.7-4.1-15.5-11.1-21.6-15.5-6.2-4.4-15.9-11.4-21.6-15.5-5.7-4.1-14.8-10.7-20.1-14.5-5.3-3.9-11.2-7.9-13-8.9-1.8-1.1-3.5-2.8-3.9-3.8C618.9.1 617.1 0 595 0c-13.1 0-24.1.4-24.4.9zM663 1.2c0 1.2 1.9 2.8 17 14.8 3.2 2.5 10 7.9 15.1 12.1 5.2 4.2 14.8 12 21.4 17.3 6.6 5.3 12.7 10.2 13.5 10.9 19.2 15.5 26.9 21.7 29.9 24 2 1.5 4.5 3.6 5.6 4.5 1.1 1 8.5 7 16.5 13.4 33.8 27.1 38.9 31.2 46.9 37.6 4.6 3.7 8.8 7.2 9.5 7.7 2 1.8 40.7 32.9 46.1 37 2.8 2.2 6.8 5.5 8.9 7.2 4.9 4.4 6.6 4.3 6.6-.3 0-1.9-.4-3.3-.9-3-.4.3-3.3-1.4-6.3-3.7-10.3-7.9-18.2-14.2-19.7-15.7-.9-.8-4.4-3.6-7.8-6.3-3.4-2.6-6.8-5.3-7.5-6-.7-.6-9.2-7.5-18.8-15.2-9.6-7.7-17.7-14.2-18-14.5-.9-1-22.6-18.4-34.2-27.4-3.5-2.7-6.7-5.4-7.3-6-.5-.7-3.8-3.3-7.2-5.9-3.4-2.6-6.8-5.3-7.5-6-.7-.7-10.2-8.4-21.2-17.2-10.9-8.8-21.9-17.7-24.5-19.8-2.5-2-8-6.4-12.1-9.7-4.1-3.3-10.9-8.7-15-12-4.1-3.3-10.5-8.4-14.2-11.2C674 4.9 671 2 671 1.3c0-.8-1.4-1.3-4-1.3-2.5 0-4 .5-4 1.2zM708 1.4c0 .7 1 2.1 2.3 2.9 1.2.9 4 3.2 6.2 5.3 2.2 2.1 10.3 9.4 18 16.3 7.7 6.9 14.5 13 15.1 13.5.6.6 4.6 4.2 8.9 8.1 4.3 3.8 14.9 13.3 23.5 21 8.6 7.7 19.2 17.1 23.5 21 4.3 3.8 8.3 7.5 8.9 8 1.3 1.2 26.9 24.2 34 30.6 2.8 2.4 7.7 6.8 11 9.8 3.4 3 7.7 6.8 9.6 8.6 1.9 1.7 7.9 7 13.2 11.7 5.4 4.8 11 9.8 12.5 11.2 5.2 4.8 5.3 4.3 5.3-16.9 0-13.4-.3-19.5-1.1-19.5-.6 0-5.7-4.2-11.3-9.3-5.6-5-13.7-12.4-18.1-16.2-4.3-3.9-8.3-7.5-8.9-8.1-.6-.5-5.5-4.9-10.8-9.6-5.4-4.8-11.4-10.2-13.5-12.1-2.1-1.9-13.2-11.9-24.8-22.2C800 45.1 788 34.5 785 31.7c-3-2.7-8.9-7.9-12.9-11.6-16.8-14.9-19.6-17.6-19.9-18.8-.5-2-44.2-1.9-44.2.1zM787 1.1c0 .7 1.9 3.3 4.2 5.8 4.2 4.7 22.5 24.6 24.3 26.5.6.6 7.6 8.3 15.5 17.1s14.7 16.2 15 16.5c.3.3 5.3 5.7 11 12 8.8 9.6 14.3 15.6 21.5 23.4.6.6 5 5.5 9.9 10.8 4.8 5.4 9.4 9.8 10.2 9.8.9 0 1.4-1.1 1.4-3.5 0-2-.5-3.5-1.2-3.5-.6 0-2.3-1.3-3.8-3-1.5-1.6-4.2-4.7-6.1-6.7-1.9-2.1-8.8-9.7-15.4-16.8-6.5-7.2-14.3-15.7-17.4-19-3.1-3.4-9.4-10.3-14.1-15.4-11.2-12.4-11.8-13-21.9-24.1C799 8.1 794 2.4 794 1.2c0-.7-1.4-1.2-3.5-1.2-1.9 0-3.5.5-3.5 1.1zM831 1c0 .6 1.8 3.8 4 7.1s4 6.2 4 6.4c0 .2 2.6 4.3 5.8 9.2 3.3 4.8 8.1 12.2 10.7 16.3 4.5 7.1 7.4 11.5 17.8 27.7 2.4 3.8 6.8 10.6 9.8 15.3 3.1 4.7 7.5 11.5 9.8 15.2 2.4 3.8 5 6.8 5.7 6.8 1.2 0 1.4-5.2 1.4-29 0-24.8-.2-29-1.5-29-.8 0-2-1-2.6-2.3-1.4-2.5-11.7-18.6-19-29.5-2.7-4.1-4.9-7.7-4.9-8.2 0-.4-.7-1.3-1.5-2S869 2.9 869 1.9c0-1.8-1.1-1.9-19-1.9-12.6 0-19 .4-19 1z"/></g></svg>