<svg xmlns="http://www.w3.org/2000/svg" width="196" height="196" fill="none"><g fill="#000" clip-path="url(#a)"><path d="M137.614 137.065h-26.6V58.57h27.136c7.793 0 14.488 1.572 20.084 4.715 5.621 3.117 9.939 7.601 12.954 13.453 3.015 5.85 4.523 12.852 4.523 21.003 0 8.176-1.52 15.203-4.561 21.08-3.015 5.877-7.372 10.387-13.07 13.529-5.672 3.143-12.494 4.715-20.466 4.715Zm-12.38-12.303h11.69c5.468 0 10.029-.997 13.683-2.99 3.653-2.019 6.4-5.021 8.24-9.007 1.84-4.011 2.759-9.02 2.759-15.024 0-6.005-.919-10.987-2.759-14.948-1.84-3.986-4.561-6.963-8.164-8.93-3.577-1.993-8.023-2.99-13.338-2.99h-12.111v53.889ZM19.906 137.065V78.194h11v9.582h.728c1.227-3.245 3.233-5.775 6.018-7.59 2.785-1.839 6.12-2.759 10.003-2.759 3.935 0 7.231.92 9.889 2.76 2.683 1.84 4.663 4.37 5.94 7.589h.614c1.405-3.143 3.64-5.647 6.707-7.512 3.066-1.891 6.72-2.837 10.961-2.837 5.34 0 9.697 1.674 13.07 5.021 3.398 3.348 5.098 8.394 5.098 15.14v39.477h-11.46V98.661c0-3.986-1.086-6.874-3.258-8.662-2.172-1.789-4.765-2.683-7.78-2.683-3.731 0-6.631 1.15-8.7 3.45-2.07 2.273-3.105 5.199-3.105 8.776v37.523H54.209V97.933c0-3.195-.996-5.762-2.99-7.704-1.992-1.942-4.586-2.913-7.78-2.913-2.172 0-4.178.575-6.017 1.724-1.814 1.125-3.283 2.696-4.408 4.715-1.099 2.018-1.648 4.356-1.648 7.014v36.296h-11.46Z"/></g><defs><clipPath id="a"><path fill="#fff" d="M0 0h196v196H0z"/></clipPath></defs></svg>