<svg xmlns="http://www.w3.org/2000/svg" width="168" height="36" fill="none"><path fill="#000" d="M155.724 35.511c-2.625 0-4.892-.545-6.801-1.636-1.898-1.102-3.358-2.66-4.381-4.67-1.023-2.023-1.534-4.404-1.534-7.142 0-2.694.511-5.057 1.534-7.091 1.034-2.046 2.477-3.637 4.33-4.773 1.852-1.148 4.028-1.722 6.528-1.722 1.614 0 3.136.262 4.568.784a10.324 10.324 0 0 1 3.818 2.387c1.114 1.08 1.989 2.454 2.625 4.125.637 1.659.955 3.636.955 5.931v1.893h-21.46v-4.16h15.545c-.011-1.181-.267-2.233-.767-3.153a5.577 5.577 0 0 0-2.097-2.199c-.886-.534-1.92-.8-3.102-.8-1.261 0-2.369.306-3.324.92a6.347 6.347 0 0 0-2.233 2.386c-.522.977-.789 2.051-.801 3.221v3.631c0 1.523.279 2.83.835 3.92.557 1.08 1.336 1.91 2.336 2.49 1 .567 2.17.851 3.511.851.898 0 1.71-.125 2.438-.375a5.41 5.41 0 0 0 1.892-1.142 4.76 4.76 0 0 0 1.21-1.858l5.761.648a8.982 8.982 0 0 1-2.079 3.989c-1.012 1.125-2.307 2-3.887 2.625-1.579.614-3.386.92-5.42.92ZM141.174 8.818v4.773h-15.051V8.818h15.051Zm-11.336-6.273h6.171v24.58c0 .83.125 1.466.375 1.91.261.43.602.726 1.023.886.42.159.886.238 1.397.238a6.03 6.03 0 0 0 1.057-.085c.33-.057.58-.108.75-.154l1.04 4.824c-.33.114-.801.239-1.415.375-.602.137-1.341.216-2.216.239-1.545.045-2.937-.188-4.176-.699-1.238-.523-2.221-1.33-2.949-2.42-.716-1.091-1.068-2.455-1.057-4.091V2.545ZM117.504 23.989V8.819h6.171V35h-5.983v-4.653h-.273c-.591 1.465-1.563 2.664-2.915 3.596-1.341.932-2.994 1.398-4.96 1.398-1.716 0-3.233-.38-4.551-1.142-1.307-.773-2.33-1.892-3.068-3.358-.739-1.477-1.108-3.262-1.108-5.352V8.819h6.17v15.715c0 1.66.455 2.977 1.364 3.955.909.977 2.102 1.465 3.579 1.465.909 0 1.79-.221 2.642-.664.853-.443 1.552-1.102 2.097-1.977.557-.887.835-1.995.835-3.324ZM84.954 35.511c-2.557 0-4.773-.562-6.648-1.687s-3.33-2.699-4.363-4.722c-1.023-2.023-1.534-4.386-1.534-7.09 0-2.705.51-5.075 1.534-7.109 1.034-2.034 2.488-3.613 4.363-4.738 1.875-1.125 4.091-1.688 6.648-1.688 2.557 0 4.773.563 6.648 1.688s3.324 2.704 4.346 4.738c1.034 2.034 1.552 4.404 1.552 7.108 0 2.705-.518 5.069-1.552 7.091-1.022 2.023-2.471 3.597-4.346 4.722-1.875 1.125-4.091 1.687-6.648 1.687Zm.034-4.943c1.386 0 2.546-.38 3.477-1.142.932-.773 1.625-1.807 2.08-3.102.466-1.296.699-2.739.699-4.33 0-1.602-.233-3.05-.7-4.346-.454-1.307-1.147-2.347-2.079-3.12-.931-.772-2.09-1.159-3.477-1.159-1.42 0-2.602.387-3.545 1.16-.932.772-1.631 1.812-2.097 3.119-.455 1.295-.682 2.744-.682 4.346 0 1.591.227 3.034.682 4.33.466 1.295 1.165 2.33 2.097 3.102.943.762 2.125 1.142 3.545 1.142ZM52.775 35h-11.83V.09h12.068c3.466 0 6.443.7 8.932 2.098 2.5 1.386 4.42 3.38 5.761 5.982 1.341 2.603 2.012 5.716 2.012 9.341 0 3.637-.676 6.762-2.029 9.375-1.34 2.614-3.278 4.62-5.812 6.017C59.354 34.301 56.32 35 52.775 35Zm-5.506-5.472h5.199c2.432 0 4.46-.443 6.085-1.33 1.625-.897 2.847-2.232 3.665-4.005.818-1.784 1.227-4.011 1.227-6.682 0-2.67-.409-4.886-1.227-6.647-.818-1.773-2.029-3.097-3.63-3.972-1.592-.886-3.57-1.33-5.933-1.33H47.27v23.966ZM.426 35V8.818h4.892v4.261h.324c.545-1.443 1.438-2.568 2.676-3.374 1.239-.819 2.722-1.228 4.449-1.228 1.75 0 3.216.41 4.398 1.228 1.193.818 2.074 1.943 2.642 3.374h.273c.625-1.397 1.619-2.51 2.983-3.34 1.363-.841 2.988-1.262 4.875-1.262 2.375 0 4.312.745 5.812 2.233 1.511 1.489 2.267 3.733 2.267 6.733V35H30.92V17.92c0-1.772-.483-3.056-1.448-3.852-.966-.795-2.12-1.193-3.46-1.193-1.66 0-2.95.511-3.87 1.534-.92 1.011-1.38 2.313-1.38 3.903V35h-5.08V17.597c0-1.42-.443-2.563-1.33-3.427-.886-.863-2.04-1.295-3.46-1.295-.966 0-1.858.256-2.676.767-.807.5-1.46 1.199-1.96 2.097-.489.897-.733 1.937-.733 3.119V35H.426Z"/></svg>