<svg xmlns="http://www.w3.org/2000/svg" xmlns:xlink="http://www.w3.org/1999/xlink" width="64" height="64" viewBox="0 0 48 48" preserveAspectRatio="xMidYMid meet" version="1.0">
  <defs>
    <linearGradient id="rocketGradient" x1="0%" y1="0%" x2="100%" y2="100%">
      <stop offset="0%" style="stop-color:#0a3d62;stop-opacity:1">
        <animate attributeName="offset" values="0%; 50%; 100%; 50%; 0%" dur="2s" repeatCount="indefinite" />
      </stop>
      <stop offset="50%" style="stop-color:#1e5799;stop-opacity:1">
        <animate attributeName="offset" values="50%; 100%; 50%; 0%; 50%" dur="2s" repeatCount="indefinite" />
      </stop>
      <stop offset="100%" style="stop-color:#304ffe;stop-opacity:1">
        <animate attributeName="offset" values="100%; 50%; 0%; 50%; 100%" dur="2s" repeatCount="indefinite" />
      </stop>
    </linearGradient>
  </defs>
  <path fill="url(#rocketGradient)" d="M 6.417969 20.476562 L 11.875 22.738281 C 11.257812 24.292969 10.769531 25.886719 10.40625 27.519531 L 10.199219 28.460938 L 18.019531 36.285156 L 18.960938 36.082031 C 20.59375 35.722656 22.1875 35.230469 23.742188 34.617188 L 26.003906 40.070312 C 26.027344 40.125 26.058594 40.171875 26.105469 40.210938 C 26.152344 40.246094 26.203125 40.273438 26.261719 40.28125 C 26.320312 40.292969 26.378906 40.292969 26.433594 40.273438 C 26.492188 40.257812 26.539062 40.226562 26.582031 40.183594 L 30 36.765625 C 30.5625 36.203125 30.988281 35.546875 31.277344 34.800781 C 31.5625 34.058594 31.6875 33.289062 31.644531 32.492188 L 31.523438 30.296875 C 37.851562 25.621094 44.257812 17.425781 46 3.121094 C 46.027344 2.941406 46.03125 2.761719 46.011719 2.582031 C 45.996094 2.402344 45.957031 2.226562 45.902344 2.054688 C 45.84375 1.882812 45.769531 1.71875 45.671875 1.566406 C 45.578125 1.414062 45.464844 1.269531 45.339844 1.144531 C 45.210938 1.015625 45.070312 0.902344 44.917969 0.804688 C 44.761719 0.710938 44.601562 0.632812 44.429688 0.574219 C 44.257812 0.515625 44.082031 0.480469 43.902344 0.460938 C 43.722656 0.445312 43.542969 0.445312 43.363281 0.46875 C 29.0625 2.230469 20.863281 8.636719 16.191406 14.949219 L 14 14.835938 C 13.203125 14.792969 12.433594 14.910156 11.691406 15.195312 C 10.945312 15.476562 10.289062 15.898438 9.722656 16.457031 L 6.304688 19.875 C 6.203125 19.964844 6.164062 20.074219 6.1875 20.210938 C 6.214844 20.34375 6.289062 20.433594 6.417969 20.476562 Z M 28.347656 12.144531 C 28.546875 11.949219 28.761719 11.773438 28.992188 11.621094 C 29.222656 11.464844 29.464844 11.335938 29.722656 11.230469 C 29.980469 11.125 30.242188 11.046875 30.515625 10.992188 C 30.789062 10.9375 31.0625 10.910156 31.339844 10.910156 C 31.617188 10.910156 31.894531 10.9375 32.167969 10.992188 C 32.4375 11.046875 32.703125 11.128906 32.960938 11.234375 C 33.214844 11.339844 33.460938 11.472656 33.691406 11.625 C 33.921875 11.78125 34.132812 11.957031 34.332031 12.152344 C 34.527344 12.347656 34.703125 12.5625 34.855469 12.792969 C 35.011719 13.023438 35.140625 13.269531 35.246094 13.523438 C 35.351562 13.78125 35.433594 14.046875 35.488281 14.316406 C 35.542969 14.589844 35.570312 14.867188 35.570312 15.144531 C 35.570312 15.421875 35.542969 15.695312 35.488281 15.96875 C 35.433594 16.242188 35.351562 16.503906 35.246094 16.761719 C 35.140625 17.019531 35.011719 17.261719 34.855469 17.492188 C 34.703125 17.722656 34.527344 17.9375 34.332031 18.132812 C 34.132812 18.328125 33.921875 18.503906 33.691406 18.660156 C 33.460938 18.8125 33.214844 18.945312 32.960938 19.050781 C 32.703125 19.15625 32.4375 19.238281 32.167969 19.292969 C 31.894531 19.347656 31.617188 19.375 31.339844 19.375 C 31.0625 19.375 30.789062 19.347656 30.515625 19.292969 C 30.242188 19.242188 29.980469 19.160156 29.722656 19.054688 C 29.464844 18.949219 29.222656 18.820312 28.992188 18.664062 C 28.761719 18.511719 28.546875 18.335938 28.347656 18.140625 C 28.152344 17.945312 27.976562 17.730469 27.820312 17.5 C 27.664062 17.265625 27.535156 17.023438 27.429688 16.765625 C 27.320312 16.507812 27.242188 16.242188 27.1875 15.96875 C 27.132812 15.695312 27.105469 15.421875 27.105469 15.144531 C 27.105469 14.863281 27.132812 14.589844 27.1875 14.316406 C 27.242188 14.042969 27.320312 13.777344 27.429688 13.519531 C 27.535156 13.261719 27.664062 13.019531 27.820312 12.789062 C 27.976562 12.554688 28.152344 12.34375 28.347656 12.144531 Z M 5.398438 36.910156 C 4.476562 36.589844 3.539062 36.511719 2.578125 36.683594 C 2.394531 36.726562 2.238281 36.679688 2.105469 36.542969 C 1.9375 36.375 1.902344 36.183594 2.003906 35.964844 C 3.003906 33.8125 5.660156 29.480469 10.472656 32.980469 C 10.527344 33.027344 10.550781 33.085938 10.550781 33.160156 C 10.550781 33.230469 10.527344 33.289062 10.472656 33.335938 C 9.820312 33.851562 9.316406 34.484375 8.96875 35.238281 C 8.617188 35.992188 8.457031 36.785156 8.484375 37.617188 C 8.488281 37.714844 8.523438 37.800781 8.59375 37.871094 C 8.664062 37.941406 8.75 37.980469 8.851562 37.984375 C 9.675781 38.015625 10.46875 37.863281 11.222656 37.519531 C 11.972656 37.175781 12.609375 36.683594 13.128906 36.035156 C 13.175781 35.976562 13.238281 35.949219 13.316406 35.949219 C 13.390625 35.949219 13.453125 35.976562 13.5 36.035156 C 14.167969 36.832031 16.007812 39.425781 13.96875 41.933594 C 13.527344 42.46875 12.996094 42.898438 12.382812 43.222656 C 11.769531 43.546875 11.117188 43.746094 10.425781 43.8125 C 8.449219 44.023438 4.800781 44.667969 3.3125 46.371094 C 3.179688 46.527344 3.011719 46.585938 2.8125 46.542969 C 2.613281 46.5 2.484375 46.378906 2.425781 46.183594 C 1.902344 44.386719 1.082031 40.371094 5.398438 36.910156 Z M 5.398438 36.910156 " fill-opacity="1" fill-rule="nonzero"/>
</svg>
